<?xml version="1.0" encoding="UTF-8" standalone="no"?>
<svg
   height="200"
   version="1.2"
   width="600"
   id="svg8"
   sodipodi:docname="ising_lattice_alternating.svg"
   inkscape:version="1.3.2 (091e20e, 2023-11-25, custom)"
   inkscape:export-filename="ising_lattice_alternating.png"
   inkscape:export-xdpi="600"
   inkscape:export-ydpi="600"
   xmlns:inkscape="http://www.inkscape.org/namespaces/inkscape"
   xmlns:sodipodi="http://sodipodi.sourceforge.net/DTD/sodipodi-0.dtd"
   xmlns="http://www.w3.org/2000/svg"
   xmlns:svg="http://www.w3.org/2000/svg">
  <sodipodi:namedview
     id="namedview8"
     pagecolor="#ffffff"
     bordercolor="#000000"
     borderopacity="0.25"
     inkscape:showpageshadow="2"
     inkscape:pageopacity="0.0"
     inkscape:pagecheckerboard="0"
     inkscape:deskcolor="#d1d1d1"
     inkscape:zoom="1.805"
     inkscape:cx="280.0554"
     inkscape:cy="55.124654"
     inkscape:window-width="1920"
     inkscape:window-height="1051"
     inkscape:window-x="-9"
     inkscape:window-y="-9"
     inkscape:window-maximized="1"
     inkscape:current-layer="svg8" />
  <defs
     id="defs1" />
  <line
     stroke="black"
     stroke-width="3"
     x1="60"
     x2="60"
     y1="70"
     y2="130"
     id="line1" />
  <polygon
     fill="#000000"
     points="60,70 65,80 55,80 "
     id="polygon1"
     transform="translate(0,-5)" />
  <line
     stroke="black"
     stroke-width="3"
     x1="120"
     x2="120"
     y1="130"
     y2="70"
     id="line2" />
  <polygon
     fill="#000000"
     points="120,130 125,120 115,120 "
     id="polygon2"
     transform="translate(0,5)" />
  <line
     stroke="black"
     stroke-width="3"
     x1="180"
     x2="180"
     y1="70"
     y2="130"
     id="line3" />
  <polygon
     fill="#000000"
     points="180,70 185,80 175,80 "
     id="polygon3"
     transform="translate(0,-5)" />
  <line
     stroke="black"
     stroke-width="3"
     x1="240"
     x2="240"
     y1="130"
     y2="70"
     id="line4" />
  <polygon
     fill="#000000"
     points="240,130 245,120 235,120 "
     id="polygon4"
     transform="translate(0,5)" />
  <line
     stroke="black"
     stroke-width="3"
     x1="300"
     x2="300"
     y1="70"
     y2="130"
     id="line5" />
  <polygon
     fill="#000000"
     points="300,70 305,80 295,80 "
     id="polygon5"
     transform="translate(0,-5)" />
  <line
     stroke="black"
     stroke-width="3"
     x1="360"
     x2="360"
     y1="130"
     y2="70"
     id="line6" />
  <polygon
     fill="#000000"
     points="360,130 365,120 355,120 "
     id="polygon6"
     transform="translate(0,5)" />
  <line
     stroke="black"
     stroke-width="3"
     x1="420"
     x2="420"
     y1="70"
     y2="130"
     id="line7" />
  <polygon
     fill="#000000"
     points="420,70 425,80 415,80 "
     id="polygon7"
     transform="translate(0,-5)" />
  <line
     stroke="black"
     stroke-width="3"
     x1="480"
     x2="480"
     y1="130"
     y2="70"
     id="line8" />
  <polygon
     fill="#000000"
     points="480,130 485,120 475,120 "
     id="polygon8"
     transform="translate(0,5)" />
  <g
     inkscape:label=""
     transform="translate(58.500006,140)"
     id="g8">
    <g
       fill="#000000"
       fill-opacity="1"
       id="g2"
       transform="matrix(1.33333,0,0,1.33333,-3.84483,-2.36183)">
      <g
         id="use1"
         transform="translate(1.993,8.4119997)">
        <path
           d="m 2.9375,-6.375 c 0,-0.25 0,-0.265625 -0.234375,-0.265625 C 2.078125,-6 1.203125,-6 0.890625,-6 v 0.3125 c 0.203125,0 0.78125,0 1.296875,-0.265625 v 5.171875 c 0,0.359375 -0.03125,0.46875 -0.921875,0.46875 h -0.3125 V 0 c 0.34375,-0.03125 1.203125,-0.03125 1.609375,-0.03125 0.390625,0 1.265625,0 1.609375,0.03125 v -0.3125 h -0.3125 c -0.90625,0 -0.921875,-0.109375 -0.921875,-0.46875 z m 0,0"
           id="path2" />
      </g>
    </g>
  </g>
  <g
     inkscape:label=""
     transform="translate(272.51663,100.66482)"
     id="g11">
    <g
       fill="#000000"
       fill-opacity="1"
       id="g10"
       transform="matrix(1.33333,0,0,1.33333,-157.34062,36.97335)">
      <g
         id="g9"
         transform="translate(1.993,8.4119997)">
        <path
           d="m 1.265625,-0.765625 1.0625,-1.03125 c 1.546875,-1.375 2.140625,-1.90625 2.140625,-2.90625 0,-1.140625 -0.890625,-1.9375 -2.109375,-1.9375 -1.125,0 -1.859375,0.921875 -1.859375,1.8125 0,0.546875 0.5,0.546875 0.53125,0.546875 0.171875,0 0.515625,-0.109375 0.515625,-0.53125 0,-0.25 -0.1875,-0.515625 -0.53125,-0.515625 -0.078125,0 -0.09375,0 -0.125,0.015625 0.21875,-0.65625 0.765625,-1.015625 1.34375,-1.015625 0.90625,0 1.328125,0.8125 1.328125,1.625 C 3.5625,-3.90625 3.078125,-3.125 2.515625,-2.5 l -1.90625,2.125 C 0.5,-0.265625 0.5,-0.234375 0.5,0 H 4.203125 L 4.46875,-1.734375 H 4.234375 C 4.171875,-1.4375 4.109375,-1 4,-0.84375 3.9375,-0.765625 3.28125,-0.765625 3.0625,-0.765625 Z m 0,0"
           id="path8" />
      </g>
    </g>
  </g>
  <g
     inkscape:label=""
     transform="translate(272.12881,105.09696)"
     id="g14">
    <g
       fill="#000000"
       fill-opacity="1"
       id="g13"
       transform="matrix(1.33333,0,0,1.33333,-96.848639,32.541217)">
      <g
         id="g12"
         transform="translate(1.993,8.4119997)">
        <path
           d="m 2.890625,-3.515625 c 0.8125,-0.265625 1.390625,-0.953125 1.390625,-1.75 0,-0.8125 -0.875,-1.375 -1.828125,-1.375 -1,0 -1.765625,0.59375 -1.765625,1.359375 0,0.328125 0.21875,0.515625 0.515625,0.515625 0.296875,0 0.5,-0.21875 0.5,-0.515625 0,-0.484375 -0.46875,-0.484375 -0.609375,-0.484375 0.296875,-0.5 0.953125,-0.625 1.3125,-0.625 0.421875,0 0.96875,0.21875 0.96875,1.109375 0,0.125 -0.03125,0.703125 -0.28125,1.140625 C 2.796875,-3.65625 2.453125,-3.625 2.203125,-3.625 2.125,-3.609375 1.890625,-3.59375 1.8125,-3.59375 c -0.078125,0.015625 -0.140625,0.03125 -0.140625,0.125 0,0.109375 0.0625,0.109375 0.234375,0.109375 h 0.4375 c 0.8125,0 1.1875,0.671875 1.1875,1.65625 0,1.359375 -0.6875,1.640625 -1.125,1.640625 -0.4375,0 -1.1875,-0.171875 -1.53125,-0.75 0.34375,0.046875 0.65625,-0.171875 0.65625,-0.546875 0,-0.359375 -0.265625,-0.5625 -0.546875,-0.5625 -0.25,0 -0.5625,0.140625 -0.5625,0.578125 0,0.90625 0.921875,1.5625 2.015625,1.5625 1.21875,0 2.125,-0.90625 2.125,-1.921875 0,-0.8125 -0.640625,-1.59375 -1.671875,-1.8125 z m 0,0"
           id="path11" />
      </g>
    </g>
  </g>
  <g
     inkscape:label=""
     transform="translate(272.84903,102.88089)"
     id="g17">
    <g
       fill="#000000"
       fill-opacity="1"
       id="g16"
       transform="matrix(1.33333,0,0,1.33333,-37.38136,34.903114)">
      <g
         id="g15"
         transform="translate(1.993,8.4119997)">
        <path
           d="m 2.9375,-1.640625 v 0.859375 c 0,0.359375 -0.03125,0.46875 -0.765625,0.46875 H 1.96875 V 0 C 2.375,-0.03125 2.890625,-0.03125 3.3125,-0.03125 c 0.421875,0 0.9375,0 1.359375,0.03125 v -0.3125 h -0.21875 c -0.734375,0 -0.75,-0.109375 -0.75,-0.46875 V -1.640625 H 4.6875 v -0.3125 H 3.703125 v -4.53125 c 0,-0.203125 0,-0.265625 -0.171875,-0.265625 -0.078125,0 -0.109375,0 -0.1875,0.125 l -3.0625,4.671875 v 0.3125 z m 0.046875,-0.3125 H 0.5625 l 2.421875,-3.71875 z m 0,0"
           id="path14" />
      </g>
    </g>
  </g>
  <g
     inkscape:label=""
     transform="translate(270.79918,102.88089)"
     id="g20">
    <g
       fill="#000000"
       fill-opacity="1"
       id="g19"
       transform="matrix(1.33333,0,0,1.33333,24.376831,34.757284)">
      <g
         id="g18"
         transform="translate(1.993,8.4119997)">
        <path
           d="m 4.46875,-2 c 0,-1.1875 -0.8125,-2.1875 -1.890625,-2.1875 -0.46875,0 -0.90625,0.15625 -1.265625,0.515625 V -5.625 c 0.203125,0.0625 0.53125,0.125 0.84375,0.125 1.234375,0 1.9375,-0.90625 1.9375,-1.03125 0,-0.0625 -0.03125,-0.109375 -0.109375,-0.109375 0,0 -0.03125,0 -0.078125,0.03125 C 3.703125,-6.515625 3.21875,-6.3125 2.546875,-6.3125 2.15625,-6.3125 1.6875,-6.390625 1.21875,-6.59375 1.140625,-6.625 1.125,-6.625 1.109375,-6.625 1,-6.625 1,-6.546875 1,-6.390625 V -3.4375 c 0,0.171875 0,0.25 0.140625,0.25 0.078125,0 0.09375,-0.015625 0.140625,-0.078125 C 1.390625,-3.421875 1.75,-3.96875 2.5625,-3.96875 c 0.515625,0 0.765625,0.453125 0.84375,0.640625 0.15625,0.375 0.1875,0.75 0.1875,1.25 0,0.359375 0,0.953125 -0.25,1.375 C 3.109375,-0.3125 2.734375,-0.0625 2.28125,-0.0625 c -0.71875,0 -1.296875,-0.53125 -1.46875,-1.109375 0.03125,0 0.0625,0.015625 0.171875,0.015625 0.328125,0 0.5,-0.25 0.5,-0.484375 0,-0.25 -0.171875,-0.5 -0.5,-0.5 C 0.84375,-2.140625 0.5,-2.0625 0.5,-1.609375 0.5,-0.75 1.1875,0.21875 2.296875,0.21875 3.453125,0.21875 4.46875,-0.734375 4.46875,-2 Z m 0,0"
           id="path17" />
      </g>
    </g>
  </g>
  <g
     inkscape:label=""
     transform="translate(358.5,140)"
     id="g23">
    <g
       fill="#000000"
       fill-opacity="1"
       id="g22"
       transform="matrix(1.33333,0,0,1.33333,-3.21983,-2.36183)">
      <g
         id="g21"
         transform="translate(1.993,8.4119997)">
        <path
           d="m 1.3125,-3.265625 v -0.25 c 0,-2.515625 1.234375,-2.875 1.75,-2.875 0.234375,0 0.65625,0.0625 0.875,0.40625 -0.15625,0 -0.546875,0 -0.546875,0.4375 0,0.3125 0.234375,0.46875 0.453125,0.46875 0.15625,0 0.46875,-0.09375 0.46875,-0.484375 0,-0.59375 -0.4375,-1.078125 -1.265625,-1.078125 -1.28125,0 -2.625,1.28125 -2.625,3.484375 0,2.671875 1.15625,3.375 2.078125,3.375 1.109375,0 2.0625,-0.9375 2.0625,-2.25 0,-1.265625 -0.890625,-2.21875 -2,-2.21875 -0.671875,0 -1.046875,0.5 -1.25,0.984375 z M 2.5,-0.0625 c -0.625,0 -0.921875,-0.59375 -0.984375,-0.75 -0.1875,-0.46875 -0.1875,-1.265625 -0.1875,-1.4375 0,-0.78125 0.328125,-1.78125 1.21875,-1.78125 0.171875,0 0.625,0 0.9375,0.625 0.171875,0.359375 0.171875,0.875 0.171875,1.359375 0,0.484375 0,0.984375 -0.171875,1.34375 C 3.1875,-0.109375 2.734375,-0.0625 2.5,-0.0625 Z m 0,0"
           id="path20" />
      </g>
    </g>
  </g>
  <g
     inkscape:label=""
     transform="translate(418.50001,140)"
     id="g29">
    <g
       fill="#000000"
       fill-opacity="1"
       id="g28"
       transform="matrix(1.33333,0,0,1.33333,-3.40733,-2.23683)">
      <g
         id="g27"
         transform="translate(1.993,8.4119997)">
        <path
           d="m 4.75,-6.078125 c 0.078125,-0.109375 0.078125,-0.125 0.078125,-0.34375 H 2.40625 c -1.203125,0 -1.234375,-0.125 -1.265625,-0.3125 h -0.25 L 0.5625,-4.6875 h 0.25 c 0.03125,-0.15625 0.109375,-0.78125 0.25,-0.90625 0.0625,-0.0625 0.84375,-0.0625 0.96875,-0.0625 h 2.0625 C 3.984375,-5.5 3.203125,-4.40625 2.984375,-4.078125 2.078125,-2.734375 1.75,-1.34375 1.75,-0.328125 c 0,0.09375 0,0.546875 0.46875,0.546875 0.453125,0 0.453125,-0.453125 0.453125,-0.546875 V -0.84375 c 0,-0.546875 0.03125,-1.09375 0.109375,-1.625 0.046875,-0.234375 0.171875,-1.09375 0.625,-1.703125 z m 0,0"
           id="path26" />
      </g>
    </g>
  </g>
  <g
     inkscape:label=""
     transform="translate(478.5,140)"
     id="g32">
    <g
       fill="#000000"
       fill-opacity="1"
       id="g31"
       transform="matrix(1.33333,0,0,1.33333,-3.21983,-2.36183)">
      <g
         id="g30"
         transform="translate(1.993,8.4119997)">
        <path
           d="m 1.625,-4.5625 c -0.453125,-0.296875 -0.5,-0.625 -0.5,-0.796875 0,-0.609375 0.65625,-1.03125 1.359375,-1.03125 0.71875,0 1.359375,0.515625 1.359375,1.234375 0,0.578125 -0.390625,1.046875 -0.984375,1.390625 z m 1.453125,0.953125 C 3.796875,-3.984375 4.28125,-4.5 4.28125,-5.15625 c 0,-0.921875 -0.875,-1.484375 -1.78125,-1.484375 -1,0 -1.8125,0.734375 -1.8125,1.671875 0,0.171875 0.015625,0.625 0.4375,1.09375 0.109375,0.109375 0.484375,0.359375 0.734375,0.53125 C 1.28125,-3.046875 0.421875,-2.5 0.421875,-1.5 c 0,1.046875 1.015625,1.71875 2.0625,1.71875 1.125,0 2.078125,-0.828125 2.078125,-1.890625 0,-0.359375 -0.109375,-0.8125 -0.5,-1.234375 C 3.875,-3.109375 3.71875,-3.203125 3.078125,-3.609375 Z m -1,0.421875 1.234375,0.78125 c 0.28125,0.1875 0.75,0.484375 0.75,1.09375 0,0.734375 -0.75,1.25 -1.5625,1.25 -0.859375,0 -1.578125,-0.609375 -1.578125,-1.4375 0,-0.578125 0.3125,-1.21875 1.15625,-1.6875 z m 0,0"
           id="path29" />
      </g>
    </g>
  </g>
</svg>
